<?xml version="1.0" encoding="UTF-8"?><svg xmlns="http://www.w3.org/2000/svg" viewBox="0 0 47.96 120.07"><defs><style>.d{fill:#fff;}</style></defs><g id="a"/><g id="b"><g id="c"><path class="d" d="M36.77,105.7c6.26-21.71,24.79,3.26-6.35,12.84-12.15,5.59-47.85-5.37-20.11-13.19,4.71-1.01,.3-3.59,1.66-6.87,4.93-6.82-9.64-9.84-5.67-15.82,1.86-.93,6.06-5.88,7.58-3.29,3.05-2.7-1.96-12.92,.38-18.38-2.98-3.02,4.13-8.94,5.16-5.61-.92,1.45,6.44,2.83,.35,4.52-6.94,2.63,.34,14.27-2.01,20.26,0,2.18-3.88,3.35-4.22,1.03-5.16,2.31,2.28,3.33,4.71,3.65,3.31,.27,18.5,.2,10.62-3.48-6,7.22-2.66-21.27-4.53-24.79-2.61-2.25-5.56-1.3-5-6.07-7.39-1.85-5.33-8.79-4.1-14.68,5.96-10.72,1.32-23.82,6.4-34.42,3.17-4.98,3.46,4.97,.02,4.39-2.73,9.06,2.91,19.85-2.58,28.08-5.98,18.87,6.2,2.73,3.19,11.51-.36,.88-4.21,3.21-1.78,3.16,2.86,1.4-.67,4.23,6.63,6.29,4.69,12.42-5.61,23.37,10.52,28.41,4.75,.52-4.8,8.26-6.81,10.39,.64,11.08-5.04,12.05,5.93,12.07h.01Zm-14.21,7.57c4.83,.83,21.77-2.73,10.16-5.93-2.34,3.04-7.99,4.82-12.89,4.12-22.75-6.26-18.28,4.1,2.73,1.81Zm10.78-26.33c-5.05,2.79-23.72-1.01-21.06,1.37,6.24,3.27,15.46,3.55,21.06-1.37Zm-5.61,19.97c-3.66-1.52-10.13-1.56-13.58-1.1,2.16,3.66,9.67,2.04,13.58,1.1Zm-5.47-8.69c13.05-1.06-4.93-3.52-7.33-2.39,.72,2.25,5.02,1.83,7.33,2.39Zm-8.19,3.14c2.43,3.58,13.39,4.33,14.27-.43-4.58,2.46-9.31,1.35-14.27,.43Zm13.13,14.1c-7.03,.27-14.58,.94-21.24-.22,6.03,2.9,14.58,1.82,21.24,.22Zm-6.51-20.86c-.14-4.22-4.88-2.16-8.12-3.56,2.32,2.49,5.28,2.75,8.12,3.56Zm21.27,11.72c1.76-.11,3.15-3.18,1.29-4.01-1.21-.63-3.96,4.43-1.29,4.01Zm3.47,.23c3.14-1.74,1.66-7.56-2.37-6.63,3.67,1.17,3.51,3.64,2.37,6.63ZM9.39,82.48c-.86-.09-2.65,1.27-1.17,1.57-.18-.92,1.1-.73,1.17-1.57Zm29.77,21.97c.17,.96,1.19-.22,.41-.46-.35-.04-.27,.31-.41,.46Zm1.72-2c-.25-.33-.66-.08-.67,.29,.04,.46,.64,.03,.67-.29Zm-5.35-18.23c-.41,.15-.75,.09-.82,.48,.23,.49,.66,.03,.82-.48Z"/><path class="d" d="M24.29,10.75c.72,9.13,9.04,36.35-.77,37.43,4.85-6.18-4.2-9.02-1.36-11.5,8.38-.37-5.19-40.23,2.13-25.94h0Z"/><path class="d" d="M21.42,68.15c.24,1.31-.11,7.37-1.83,4.82-2.46-2.18,1.26-10.82,1.83-4.82Z"/></g></g></svg>