<svg xmlns="http://www.w3.org/2000/svg" viewBox="0 0 99.25 1079.76"><g id="a"/><g id="b"><g id="c"><g><path class="d" d="M2.05,1079.76c0-14.44-.02-28.87,.01-43.31,0-.59,.36-1.32,.78-1.75,1.68-1.71,3.43-3.35,5.19-4.98,.56-.52,.64-.95,.25-1.64-4.25-7.51-6.09-15.75-7.21-24.21-1.18-8.91-1.22-17.87-.89-26.81,.5-13.55,2.43-26.9,6.64-39.84,1.55-4.78,3.72-9.25,6.71-13.33,3.07-4.18,7.2-6.36,12.27-6.83,2.62-.24,5.26-.48,7.89-.49,10.72-.05,21.44-.14,32.15,.06,3.6,.06,7.22,.75,10.78,1.45,5.42,1.07,9.03,4.49,11.41,9.39,2.76,5.68,4.61,11.67,6.16,17.76,2.04,8,3.3,16.13,3.88,24.36,.45,6.41,.67,12.84,1,19.26,.02,.39,.13,.78,.19,1.17v12c-.07,.51-.17,1.02-.19,1.53-.17,4.31-.3,8.62-.49,12.93-.36,8.23-1.25,16.4-2.68,24.51-1.44,8.12-3.39,16.1-6.44,23.79-3.11,7.82-8.33,13.06-16.9,14.41-1.41,.22-2.84,.39-4.26,.59h-6.24c0-22.92,0-45.83,0-68.75,0-.04,0-.08,0-.12-.15-1.17,.38-1.52,1.51-1.5,2.76,.06,5.52,.1,8.28-.02,2.11-.09,4.21-.37,6.3-.69,2.29-.36,3.72-1.75,4.19-4.04,.9-4.4,.94-8.81-.03-13.21-.46-2.08-1.72-3.54-3.89-3.93-1.68-.3-3.4-.6-5.1-.61-15.84-.05-31.67-.03-47.51-.03-.52,0-1.04,0-1.56,.03-4.93,.3-7.1,1.95-7.61,6.6-.37,3.38-.37,6.88,.04,10.26,.65,5.32,2.7,7.17,8.05,7.57,3.94,.29,7.91,.19,11.86,.24,1.94,.02,1.95,0,1.95-1.98,0-3.24,0-6.48,0-9.72,0-.52-.1-1.07,.05-1.55,.11-.35,.55-.85,.84-.86,4.28-.06,8.56-.06,12.84,0,.3,0,.72,.49,.86,.85,.15,.38,.05,.87,.05,1.31,0,26.71,0,53.43,0,80.14H2.05Zm47.06-41.23c0-11.56,0-23.12,0-34.68,0-.32,0-.64,0-.96-.01-1.56-.03-1.58-1.63-1.59-1.16,0-2.32,0-3.48,0-1.57,0-1.57,0-1.58,1.63,0,2.56,0,5.12,0,7.68-.01,3.34-1.49,4.83-4.83,4.84-3.68,.01-7.37,.13-11.04-.05-2.25-.12-4.53-.52-6.7-1.16-2.91-.86-5.03-2.87-6.01-5.76-1.96-5.79-2.02-11.68-.67-17.62,.89-3.91,3.28-6.36,7.19-7.15,2.3-.46,4.66-.85,6.99-.86,14.76-.08,29.52-.09,44.27,0,2.65,.02,5.33,.45,7.94,.98,3.46,.7,5.55,3,6.42,6.4,1.33,5.17,1.29,10.35,.05,15.54-.85,3.54-2.98,5.67-6.52,6.58-3.85,.99-7.76,.96-11.68,.94-1.9,0-1.9,0-1.9,1.91,0,19.52,0,39.03,0,58.55,0,.28,.02,.56,0,.84-.04,.75,.29,1.08,1.06,1.09,8.07,.03,14.56-2.62,18.14-10.91,2.39-5.53,4.15-11.25,5.47-17.11,3.03-13.39,4.13-27.01,4.48-40.68,.29-11.19,.43-22.4-.67-33.56-.71-7.19-1.51-14.39-2.73-21.5-1.38-8.02-3.8-15.77-7.4-23.12-1.71-3.49-4.31-5.74-8.03-6.85-3.96-1.18-8.02-1.47-12.09-1.51-8.8-.09-17.6-.07-26.4,0-3.79,.03-7.59,.23-11.37,.48-3.95,.25-7.17,1.92-9.6,5.15-3.7,4.92-5.85,10.53-7.53,16.36-3.46,12.02-4.85,24.36-5.25,36.82-.28,8.59-.02,17.18,1.13,25.73,1.03,7.64,2.95,14.97,6.84,21.7,1.06,1.83,.79,3.79-.69,5.28-1.41,1.42-2.86,2.79-4.35,4.12-.78,.7-1.06,1.47-1.06,2.52,.03,11.76,.02,23.52,.02,35.27q0,1.81,1.77,1.82c13.2,0,26.4,0,39.59,0q1.83,0,1.83-1.89c0-11.76,0-23.52,0-35.27Z"/><path class="d" d="M97.09,0c.02,.6,.05,1.2,.05,1.8,0,38.36,0,76.72,0,115.08,0,.32-.03,.64,0,.96,.08,.95-.38,1.25-1.29,1.24-5.48-.02-10.96-.04-16.44,.01-1.25,.01-1.32-.63-1.32-1.58,.01-14.8,0-29.6,0-44.4,0-.36,0-.72,0-1.08,0-1.68,0-1.68-1.64-1.69-4.44,0-8.88,0-13.32,0q-2.99,0-2.99,2.98c0,12.88,0,25.76,0,38.64q0,1.8-1.78,1.8c-4.92,0-9.84,0-14.76,0-1.71,0-1.71,0-1.71-1.76,0-13.16,0-26.32,0-39.48q0-2.18-2.24-2.18c-12.04,0-24.08-.01-36.12,.02-1.12,0-1.54-.31-1.53-1.49,.03-22.72,.02-45.44,.02-68.16,0-.24,.01-.48,.02-.72H97.09Zm-3.84,59.7c0-17.92,0-35.84,0-53.75q0-1.87-1.84-1.87c-27.88,0-55.75,0-83.63,0q-1.86,0-1.86,1.84c0,19.56,0,39.12,0,58.67q0,1.88,1.93,1.88c11,0,22,0,33,0,3.48,0,5.06,1.58,5.12,5.06,0,.4,0,.8,0,1.2,0,11.84,0,23.68,0,35.52,0,1.62,.02,1.64,1.58,1.64,2.4,0,4.8-.06,7.2,.03,1.23,.04,1.56-.39,1.55-1.59-.05-7.32-.02-14.64-.02-21.96,0-5.08-.02-10.16,0-15.24,.01-2.91,1.46-4.59,4.22-4.63,5.76-.08,11.52-.08,17.28,0,2.63,.03,4.02,1.51,4.21,4.13,.03,.44,.02,.88,.02,1.32,0,13.88,0,27.76,0,41.64,0,1.59,0,1.6,1.6,1.6,2.6,0,5.2,0,7.8,0q1.85,0,1.85-1.85c0-17.88,0-35.76,0-53.63Z"/><path class="d" d="M51.64,571.83c-.58,4.46-1.13,9.25-1.85,14.01-.88,5.84-2.42,11.46-5.38,16.68-1.92,3.38-4.61,5.11-8.41,5.17-10.91,.18-21.82,.3-32.73,.48-1.17,.02-1.26-.6-1.26-1.51,.02-7.76,0-15.52,0-23.28,0-12.92,0-25.84,0-38.76,0-1.78,0-1.78,1.81-1.78,9.44,0,18.88,.01,28.32-.01,1.56,0,3.12-.08,4.67-.24,5-.52,6.97-2.53,7.42-7.86,.32-3.82,.41-7.66,.55-11.49,.06-1.66,0-1.69-1.65-1.69-12.96,0-25.92,0-38.88,0-.4,0-.8-.02-1.2,0-.69,.02-1.06-.26-1.03-.99,.01-.32,0-.64,0-.96,0-22.16,0-44.31,0-66.47q0-1.91,1.92-1.91c30.44,0,60.87,0,91.31,0,1.88,0,1.89,0,1.88,1.84-.02,26.72,0,53.43-.08,80.15-.02,7.23-.19,14.47-.49,21.7-.37,9.02-.66,18.05-2.57,26.93-1.21,5.62-2.86,11.07-5.59,16.15-3.94,7.33-10.81,10.76-19.16,10.01-1.27-.11-2.55-.26-3.79-.56-4.94-1.18-8.24-4.21-9.96-8.98-1.6-4.44-2.31-9.06-2.79-13.72-.45-4.4-.73-8.82-1.06-12.92Zm-2.04-116.56c-14,0-28,0-42,0-1.68,0-1.68,0-1.69,1.65,0,.8,0,1.6,0,2.4,0,18.72,0,37.44,0,56.16,0,2.37-.17,2.17,2.23,2.18,10.28,0,20.56,0,30.84,0,1.76,0,3.52-.04,5.28,.01,2.93,.09,4.56,1.66,4.57,4.58,.02,5.48-.13,10.94-1.37,16.33-.87,3.78-3.17,6.19-6.84,7.09-2.46,.6-5.04,.97-7.57,1.01-8.56,.12-17.12,.06-25.68,.03-1.06,0-1.48,.28-1.48,1.42,.03,18.2,.03,36.4,0,54.6,0,1.05,.35,1.39,1.39,1.39,5.92-.03,11.84,.02,17.76-.03,3.44-.02,6.87-.13,10.31-.28,2.01-.09,3.94-.29,5.13-2.4,2.16-3.83,4.05-7.76,4.72-12.12,.94-6.12,1.63-12.27,2.46-18.41,.15-1.14,.32-2.33,.77-3.36,.58-1.33,2.22-1.99,3.64-1.76,1.72,.28,3,1.25,3.18,2.95,.45,4.25,.57,8.53,1.09,12.76,.56,4.59,1.25,9.18,2.22,13.7,.9,4.19,3.2,7.58,7.71,8.42,2.67,.5,5.49,.48,8.21,.27,2.94-.23,5.46-1.69,7.56-3.8,2.85-2.87,4.28-6.52,5.66-10.19,3.23-8.61,4.05-17.65,4.54-26.73,.34-6.38,.53-12.78,.7-19.17,.15-5.76,.25-11.51,.26-17.27,.04-23.2,.03-46.4,.05-69.6q0-1.82-1.89-1.83c-13.92,0-27.84,0-41.76,0Z"/><path class="d" d="M54.95,831.83c.46,0,.91,0,1.37,0,13,0,26,0,39,0,1.82,0,1.82,0,1.82,1.78,0,18.44,0,36.88,0,55.31,0,1.72,0,1.73-1.75,1.73-30.56,0-61.11,0-91.67,0-1.68,0-1.69,0-1.69-1.66,0-19.52,0-39.04-.02-58.55,0-1.08,.36-1.79,1.16-2.46,11.89-10.02,23.76-20.07,35.63-30.11,1.74-1.47,3.49-2.93,5.25-4.38,.27-.22,.63-.33,.95-.48l-.33-.51h-1.38c-13.16,0-26.32,0-39.48,0-1.77,0-1.78,0-1.78-1.8,0-18.4,0-36.8,0-55.19,0-1.81,0-1.82,1.78-1.82,30.52,0,61.03,0,91.55,0,1.78,0,1.78,0,1.78,1.82,0,18.52,0,37.04,.02,55.55,0,1.09-.32,1.88-1.12,2.61-6.5,5.92-12.98,11.87-19.46,17.82-4.18,3.84-8.35,7.69-12.53,11.53-2.71,2.49-5.41,4.98-8.14,7.45-.37,.34-.86,.56-1.29,.84l.33,.52Zm-5.33-94.08c-14,0-28,0-41.99,0-1.71,0-1.71,0-1.71,1.75,0,15.8,0,31.6,0,47.39,0,1.72,0,1.73,1.72,1.73,11.28,0,22.56,0,33.84,0,1.04,0,2.08-.03,3.12,.01,2.24,.1,3.68,1.14,4.17,2.95,.58,2.17-.58,3.57-2.1,4.83-2.91,2.43-5.82,4.88-8.72,7.33-5.01,4.23-10.01,8.46-15.02,12.68-5.25,4.43-10.49,8.88-15.76,13.29-.89,.75-1.28,1.56-1.27,2.76,.04,17.48,.03,34.95,.03,52.43q0,1.84,1.85,1.84c27.88,0,55.75,0,83.63,0q1.85,0,1.86-1.84c0-15.76,0-31.52,0-47.27q0-1.92-1.9-1.92c-12.08,0-24.16,0-36.23,0-1.74,0-3.31-.41-4.03-2.2-.76-1.86-.37-3.53,1.12-4.91,1.11-1.03,2.23-2.07,3.34-3.1,3.26-3.01,6.51-6.02,9.78-9.02,5.71-5.25,11.42-10.48,17.13-15.73,3.18-2.92,6.31-5.89,9.55-8.74,.91-.8,1.26-1.58,1.26-2.76-.03-16.56-.02-33.12-.02-49.67q0-1.84-1.87-1.84c-13.92,0-27.84,0-41.75,0Z"/><path class="d" d="M2.02,196.76c0-19.68,0-39.35,0-59.03q0-1.87,1.83-1.88c30.48,0,60.95,0,91.43,0q1.85,0,1.85,1.87c0,37.79,0,75.59,0,113.38q0,1.9-1.94,1.9c-5.16,0-10.32,0-15.48,0-1.57,0-1.61-.04-1.61-1.62,0-14.44,0-28.88,0-43.31q0-1.88-1.92-1.88c-4.76,0-9.52,0-14.28,0q-1.75,0-1.75,1.82c0,13.4,0,26.8,0,40.19q0,1.89-1.94,1.89c-4.88,0-9.76,0-14.64,0-1.65,0-1.68-.03-1.68-1.67,0-13.44,0-26.88,0-40.31q0-1.92-1.91-1.92c-5.76,0-11.52,.03-17.28-.02-1.14-.01-1.62,.4-1.62,1.49,0,.56-.04,1.12-.04,1.68,0,15.52,0,31.04,0,46.55q0,1.88-1.83,1.89c-5.2,0-10.4,0-15.6,0-1.57,0-1.6-.03-1.6-1.62,0-19.8,0-39.59,0-59.39Zm3.89,.17c0,18.4,0,36.79,0,55.19q0,1.77,1.8,1.77c2.56,0,5.12,0,7.68,0q1.77,0,1.77-1.8c0-14.44,0-28.87,0-43.31,0-.72-.03-1.44,.02-2.16,.15-2.09,1.12-3.53,2.74-3.95,.8-.21,1.65-.34,2.48-.34,5.88-.03,11.76-.02,17.64-.02,4.58,0,5.92,1.34,5.92,5.94,0,12.12,0,24.23,0,36.35,0,1.58,.03,1.6,1.62,1.61,2.48,0,4.96-.03,7.44,.01,.92,.01,1.29-.3,1.27-1.25-.04-2.36-.01-4.72-.01-7.08,0-10.24,0-20.48,0-30.71,0-3.14,1.45-4.82,4.37-4.85,5.68-.06,11.36-.06,17.04,0,2.73,.03,4.17,1.55,4.3,4.29,.02,.44,0,.88,0,1.32,0,13.16,0,26.31,0,39.47,0,1.71,0,1.71,1.74,1.71,2.56,0,5.12,0,7.68,0q1.83,0,1.83-1.87c0-35.15,0-70.31,0-105.46q0-1.87-1.83-1.88c-27.87,0-55.75,0-83.62,0q-1.87,0-1.88,1.95c0,18.36,0,36.71,0,55.07Z"/><path class="d" d="M2.02,439.12v-1.69c0-22.8,0-45.59,0-68.39,0-1.81,0-1.82,1.75-2.2,4.65-1.02,9.29-2.05,13.95-3.02,.99-.21,1.39-.6,1.38-1.67-.04-7.36-.04-14.72,0-22.08,0-1.08-.37-1.55-1.42-1.79-4.79-1.12-9.56-2.33-14.34-3.45-.93-.22-1.33-.59-1.33-1.6,.02-23.44,.02-46.87,.02-70.31,0-.34,.06-.68,.11-1.23,1.6,.59,3.05,1.11,4.49,1.65,29.72,11.16,59.45,22.32,89.18,33.45,.99,.37,1.34,.89,1.34,1.93-.02,33-.02,65.99,0,98.99,0,.93-.31,1.42-1.19,1.79-17.5,7.37-34.99,14.78-52.49,22.18-13.37,5.66-26.73,11.32-40.1,16.97-.36,.15-.73,.25-1.35,.47Zm3.99-171.71c-.04,.57-.1,.92-.1,1.27,0,20.48,0,40.96-.02,61.44,0,1.07,.42,1.46,1.39,1.69,4.01,.94,7.99,2.04,12.01,2.89,2.89,.61,3.69,2.36,3.68,4.64-.02,7.8,0,15.6-.01,23.4,0,2.85-1.02,4.07-3.79,4.68-3.95,.86-7.88,1.78-11.84,2.57-1.16,.23-1.45,.75-1.45,1.86,.03,19.96,.02,39.92,.02,59.88,0,.42,.05,.84,.09,1.43,.57-.19,.99-.3,1.38-.47,3.76-1.59,7.51-3.18,11.26-4.77,11.71-4.96,23.42-9.91,35.13-14.87,12.67-5.36,25.33-10.72,38.02-16.04,1.09-.46,1.47-1.03,1.47-2.21-.03-31.04-.03-62.08,0-93.12,0-1.26-.42-1.82-1.58-2.25-9.27-3.42-18.51-6.9-27.76-10.37-18.83-7.07-37.66-14.13-56.5-21.2-.4-.15-.82-.25-1.43-.44Z"/><path class="d" d="M49.65,635.29c15.2,0,30.4,0,45.59,0q1.88,0,1.88,1.84c0,22.24,0,44.47,0,66.71,0,1.78,0,1.78-1.81,1.78-30.52,0-61.03,0-91.55,0-1.75,0-1.75,0-1.75-1.71,0-22.32,0-44.63,0-66.95,0-1.65,.03-1.67,1.68-1.67,15.32,0,30.64,0,45.95,0Zm-.1,66.45c13.91,0,27.83,0,41.74,0q1.94,0,1.94-1.87c0-19.55,0-39.1,0-58.66q0-1.85-1.85-1.86c-27.87,0-55.74,0-83.61,0q-1.87,0-1.87,1.83c0,19.59,0,39.18,0,58.78q0,1.78,1.78,1.78c13.95,0,27.91,0,41.86,0Z"/><path class="d" d="M70.45,517.66c3.16,0,6.32-.02,9.48,0,3.14,.02,4.9,1.56,4.86,4.67-.07,5.55-.14,11.11-1.52,16.55-1.19,4.69-4.42,7.57-9.26,7.79-3.38,.15-6.79,.33-10.12-.65-3.25-.95-5.58-2.97-6.38-6.22-.75-3.09-1.1-6.29-1.42-9.46-.25-2.46-.24-4.95-.25-7.42-.02-3.7,1.57-5.26,5.26-5.27,3.12,0,6.24,0,9.36,0Zm-.05,3.89c-3.08,0-6.16,0-9.23,0-.69,0-1.28,.04-1.29,.98-.01,5.12,.02,10.23,1.04,15.27,.56,2.78,2.59,4.63,5.42,4.79,2.7,.15,5.42,.11,8.13,.05,2.02-.05,3.47-1.17,4.34-2.94,.45-.92,.77-1.94,.97-2.95,.91-4.65,1.03-9.36,1.01-14.08,0-.94-.46-1.14-1.27-1.13-3.04,.02-6.08,0-9.11,0Z"/><path class="d" d="M32.06,349.74c0-3.4-.02-6.8,.01-10.2,0-.83,.11-1.68,.3-2.49,.53-2.27,2.43-3.5,4.7-2.91,4.41,1.13,8.87,2.16,13.17,3.63,8.85,3.02,17.62,6.28,26.41,9.47,2.03,.74,3.01,2.14,2.91,3.93-.11,1.94-1.3,3.22-3.42,3.76-9.76,2.49-19.52,4.96-29.27,7.51-3.28,.86-6.49,2.02-9.77,2.89-2.47,.66-4.27-.51-4.77-3.02-.24-1.2-.25-2.46-.26-3.69-.03-2.96-.01-5.92-.01-8.88Zm43.15,1.18c-.41-.18-.78-.35-1.17-.5-3.22-1.22-6.43-2.44-9.65-3.63-8.78-3.24-17.6-6.35-26.7-8.58-1.48-.36-1.57-.3-1.57,1.24,0,6.92,0,13.83,0,20.75,0,.39,.04,.78,.06,1.09,13.03-3.46,25.97-6.9,39.02-10.37Z"/></g></g></g></svg>