<svg xmlns="http://www.w3.org/2000/svg" viewBox="0 0 337.47 62.91">
    <defs>
        <style>
            .d {
                fill: #fff;
            }
        </style>
    </defs>
                <path class="d"
                    d="M155.85,62.91c-1.7-2.29-4.08-1.07-6.19-1.15-.7-.03-1.42,.29-2.65,.56,1.22-3.8-.83-6.88-.91-10.16-.1-3.77-1.96-7.72,.71-11.12-.12-1.87-2.41-3.22-.69-5.1-.77-1.58-.09-2.94,.5-4.41,.34-.86,.47-2.13,.07-2.9-1.47-2.82-1.29-5.49-.65-8.55,.65-3.13,.67-6.58,.03-9.69-.4-1.91-.29-3.43,.21-5.14,.23-.78,.35-1.59,.54-2.48l6.05-.96,2.98,1.48c1.34-.62,2.76-1.36,4.31-.23,.37,.27,5.74-.24,6.24-.43,1.35-.53,2.61-.82,4.15-.32,1.32,.43,2.85,.21,4.82,.3,2.85,2.08,6.02,4.49,9.31,6.74,1.11,.76,1.99,1.31,1.66,2.89-.12,.59,.36,1.51,.85,1.98,1.47,1.38,1.25,2.9,.94,4.64-.6,3.37-2.18,6.52-2.21,10.05,0,.88-.74,2.28-1.45,2.52-3.23,1.08-4.59,4.14-7.23,6.04,.14,.9-.02,2.2,.48,2.54,1.89,1.29,1.96,3.56,3.26,5.17,1.25,1.55,1.49,3.61,1.42,5.37,1.52,2.1,3.29,3.92,4.29,6.1,.87,1.89,1.74,4.18,.03,6.26h-9.49c-.82-1.11-2.82-.46-3.25-2.3-.35-1.47-1.13-2.83-1.63-4.27-.32-.94-.92-2.12-.6-2.87,.71-1.7-.05-2.98-1.2-3.49-1.67-.74-2.22-2.08-2.85-3.44-1.18-2.53-2.31-5.07-5.37-6-1.21,1.06-3.27,.96-4.08,2.99l1.3,3.17c-.29,3.05-2.06,5.88-.94,8.77,.88,2.26-1.5,4.03-.4,6.16,.12,.24-.48,.85-.75,1.29h-1.58Zm18.73-44.83c-1.22-2.91-3.72-4.91-6.74-5.86-1.55,.12-2.78,.33-4,.29-1.23-.04-2.45-.32-3.59-.48-1.05,3.2-1.94,5.94-1.25,9.07,.49,2.22,.09,4.63,.09,6.67l1.65,2.05c1.61-.28,2.77-.77,3.84-.62,2.52,.34,4.55-.76,6.65-1.74,1.75-.82,2.77-2.07,2.77-4.13,0-1.63,.35-3.26,.58-5.24Z" />
                <path class="d"
                    d="M308.54,62.91c-.94-.82-1.74-1.47-3.31-1.12-1.59,.36-2.92-.98-3.66-2.32-1.24-2.23-3.1-3.73-5.11-5.19-.78-.57-1.39-1.49-1.84-2.37-.51-1-.76-2.14-1.16-3.35,.44-.53,.93-1.13,1.42-1.72-.22-1.1-.5-2.2-.64-3.31-.16-1.26-.12-2.48-.55-3.78-.47-1.42-.41-3.26,.07-4.71,.97-2.95,.48-5.54-1.07-8.06,1.08-2.38,3.14-4.72-.27-6.87,1.67-2.75,2.8-5.42,1.83-8.69,.69-.1,1.32-.15,1.92-.29,1.18-.28,1.17-.31,2.18-2.65,.1-.23,.27-.44,.44-.62,3.63-3.77,7.57-6.97,13.24-6.89,.64,0,1.38,0,1.89,.31,1.86,1.1,3.21,.25,4.27-.75,1.54,.45,2.9,.81,4.23,1.23,1.7,.54,3.54,.79,4.78,2.32,.3,.37,.84,.7,1.3,.76,3.07,.34,3.69,2.84,4.65,5.05,.65,1.5,.94,3.1,1.88,4.55,.69,1.07,.48,2.71,.63,3.84-1.87,2.94-4.23,1.66-6.41,1.33-.62-.09-1.23-.37-1.85-.4-.34-.02-.7,.31-1.15,.52-1.34-1.47-3.3-2.4-3.7-4.79-.13-.78-1.49-2-2.18-1.93-2.34,.22-3.31-2.02-5.17-2.27l-4.69,.78c-2.45,2.08-3.69,4.74-3.54,8.21,.08,1.84-.72,3.72-1.08,5.59-.42,2.16-1.42,4.11-.59,6.61,.6,1.83-.28,4.13-.51,6.32l2.14,2.26c.25,1.44-.31,3.12,1.14,4.31,.33,.27,.62,1.05,.46,1.38-1.19,2.55,.27,4.07,2.36,5.86,3.32-.31,6.92-.64,10.42-.97,.9-2.43,1.77-4.78,2.76-7.45l-2.24-4.14c-1.38,0-2.68,.03-3.97,0-2.6-.07-2.94-.41-3.07-2.89-.06-1.26-.14-2.52-.25-4.33,.32-.8,.89-2.21,1.44-3.59,2.8,0,5.7,.38,8.45-.1,3.09-.55,6.09,2.03,9.17-.17,.78,1.1,1.52,2.14,2.3,3.23,0,2.33-1.33,4.61-.44,7.14,.84,2.38,1.31,4.88,2.02,7.62-.71,1.34-1.68,2.97-.45,5,.42,.69-.45,6.37-.91,7.24-.5,.95-.7,2.25-2.4,2.12-.58-.04-1.24,.87-1.92,1.39-1.42-.38-3.11-.46-4.28-1.28-1-.7-1.4-2.25-2.24-3.72-2.35,2.34-4.41,4.57-7.24,5.76h-3.16c-.53-.95-1.05-.93-1.58,0h-.79c-.26-.71-.53-.74-.79,0h-1.58c-.26-.73-.53-.73-.79,0h-.79Z" />
                <path class="d"
                    d="M99.68,62.91c-.85-1.87-2.22-1.9-3.68-.8-1.73-1.74-1.37-3.59-.83-5.28,.62-1.96,2.57-3.56,1.44-5.96-.09-.2,.32-.68,.57-.99,1.57-1.94,1.68-4.47,2.77-6.62,.4-.8,.16-1.95,.11-2.93-.05-.88-.62-1.93-.29-2.59,1.64-3.31,2.12-6.79,2.38-10.41,.18-2.44,.63-4.97,2.98-6.37-.68-2.4-.43-4.55-.06-6.77,.37-2.2-.14-4.63,.59-6.65,.8-2.22,2.58-4.1,4.09-6.38,.49-.19,1.53-.98,2.13-.74,3.24,1.31,6.37-.04,9.53-.03,1.85,0,3.7,.71,5.69,1.12-.91,4.16-.44,7.83,2.15,11.11,.67,.84,.8,1.89,.93,3.05,.24,2.29,1.5,4.38,.66,6.91-.54,1.62,1.02,2.83,2.17,4.09-1.87,2.32,0,4.67,.19,6.97,.18,2.19,.22,5.07,3.2,6.09-1.4,3.36-.49,5.79,2.12,7.8-1.74,1.57-1.85,3.14-.87,5.19,1.02,2.13,1.93,4.39,2.24,6.92-3.23,2.63-7.09,2.79-11.7,2.46l-2.47-2.44c.1-2.84,0-5.16-1.97-6.9-.1-.08-.16-.21-.22-.32q-1.94-3.77-5.4-4.85c-.4,.34-.8,.67-1.11,.93l-5.45-1.47-1.97,3.84c.32,1.03,.72,2.33,1.18,3.81l-2.27,1.88,.87,2.05c-1.13,.9-2.21,2.07-3.54,2.71-1.23,.59-2.74,.57-4.11,.89-.45,.11-.84,.45-1.25,.68h-.79Zm12.9-26.27c2.37,2.98,5.65,1.21,8.13,2.34l.97-4.91c-.63-1.55-1.02-3.4-2.04-4.79-1.15-1.57-1.24-2.99-.76-4.7,.2-.72,.45-1.8,.09-2.24-1.89-2.24-1.35-4.5-.51-6.9,.46-1.32-.14-2.21-1.67-2.58l-2.1,4.06c.76,1.92,.96,3.6,.45,5.66-.58,2.35-.87,4.7-2.36,6.71-.22,.29-.44,.81-.32,1.07,.98,2.1-.75,4.22,.12,6.28Z" />
                <path class="d"
                    d="M61.71,62.91c-.16-.19-.3-.53-.48-.56-3.08-.39-6.16-.75-9.42-1.13q-2.43-2.22-1.56-4.77c-.78-3.42-1.61-6.23-1.98-9.1-.15-1.14,.72-2.41,1.08-3.48-.13-.92-.6-1.93-.31-2.61,1.13-2.64,.8-5.39,.64-8.05-.15-2.41,1.21-4.63,.56-7.07-.13-.48,.47-1.16,.83-1.96-.37-.57-1.06-1.22-1.2-1.98-.12-.65,.46-1.41,.62-2.14,.42-1.99,.8-3.86-.35-5.91-.82-1.45-1.02-3.24-.5-5.16,.66-2.43,.61-5.05,.86-7.57,.44-.05,.67-.03,.86-.11,1.83-.73,3.65-1.46,5.6-.35,3.96-.48,7.91-.26,11.89-.15,1.75,.05,3.69,.38,5.49-.57,.72-.38,1.85-.24,2.73-.03,1.61,.39,3.18,.96,4.73,1.53,1.49,.55,2.8-.78,4.45-.11,2.5,1.02,2.79,1.3,1.75,3.83-.48,1.17-.76,2.42-1.22,3.9-2.1,1.73-4.85,2.04-7.81,2-2.57-.03-5.15-.35-7.77,.56-1.21,.42-2.93-.57-4.68-.98l-1.63,1.21-2.67-1.86c-.14,.63-.4,1.13-.27,1.26,1.42,1.44,1.68,2.87,.95,4.89-.57,1.57-.32,3.47-.29,5.22,.06,2.89,1.38,4.22,4.21,4.36,2.98,.14,6.01-.37,8.93,.74,.51,.19,1.24-.25,1.88-.31,2.19-.22,4.39-.4,6.4-.57,1.34,1.16,1.76,2.17,1.78,3.74,.02,1.95-.16,3.82-1.21,5.3-1.37,1.93-3.98,2.09-5.69,1.23-2.2-1.11-4.29,.48-6.3-.52-.32-.16-1.09,.14-1.39,.46-1.39,1.47-3.24,1.36-4.8,.95-1.7-.45-2.86,.25-4.37,.73,1.03,3.79,1.67,7.47,.26,11.31l3.29,2.97c2.1-.32,4.49-.36,6.63-1.11,2.78-.97,5.32-.73,7.98,.13,1.22,.39,2.5,.71,3.77,.77,1.78,.09,3.32,.54,4.61,1.99-.21,.92-.61,1.88-.59,2.82,.02,.83,.52,1.65,.85,2.59-2.39,1.33-4.48,3.03-7.32,1.84-1.18-.5-1.79,1.76-3.33,.48-.64-.53-2.2,.03-3.93,.12l-1.84-1.65c-.28,.21-.58,.41-.86,.64-1.35,1.14-2.89,1.62-4.68,1.58-.67-.01-1.35,.43-2.03,.66h-3.16Z" />
                <path class="d"
                    d="M0,21.4c1.08-1.73,2.13-3.46,.77-5.52,.82-2.41-.73-4.97,.5-7.39,.32-.64,.25-1.52,.21-2.29-.1-1.91,.47-3.54,1.89-5.12,3.83-.06,7.71-.56,11.69,.14,2,.35,4.2-.44,6.57-.74l3.93,2.17c4.41-2.44,3.11-1.98,7.5-.91,1.76-.42,3.21-2.33,5.54-1.24,.83,1.25-.44,2.68,.13,4.18,.52,1.36,.11,3.07,.11,4.6l-4.91,3.73-2.57-2.24c-.61,.18-1.36,.67-1.77,.47-2.54-1.22-5.24-.26-7.83-.66-1.58-.24-3.28-.09-4.87,.21-2.02,.37-3.21,1.99-2.42,3.65,.72,1.53,.14,2.59-.06,3.96-.35,2.42-.12,4.94-.05,7.41,.03,1.04,.7,1.63,1.75,1.75,.26,.03,.53-.02,.79,.02,1.57,.22,2.83-1.33,3.97-1.19,1.32,.16,2.43,.44,3.76-.5,1.61,1.43,3.59,1.93,5.75,1.68,2.72-.32,5.04,.82,7.65,1.92-.64,3.01,2.54,6.08-.61,9.4-1.59-.55-3.23-1.23-4.93-1.68-1.91-.51-3.55,.43-5.12,1.21-1.28-1.45-3.42-.89-4.53-2.13l-7.24,2.32c-1.68,4.32-1.74,8.56-.65,12.77,.43,1.66-.58,2.38-1.33,3.37l1.53,5.84c-1.18,2.26-3.06,1.83-4.78,1.23-.95-.33-1.68-.53-2.55,.05-.87,.57-1.62,.29-2.52-.21-3.08-1.69-3.09-1.65-4.27-4.28C.79,56.83,.35,56.37,0,55.86v-3.13c1.04-1.97,1.04-2.76,0-4.7v-.78c.99-2.43,.99-5.38,0-7.83v-.78c.74-.26,.74-.52,0-.78v-1.57c.2-.14,.55-.26,.57-.42,.26-2.39,1.03-4.91,.51-7.12-.39-1.64,.54-3.64-1.07-5v-2.35Z" />
                <path class="d"
                    d="M275.4,30.48c1.62-3.11,.11-6.3,.52-9.4,.41-3.08,.07-6.25,.11-9.38,.04-3.18,.15-6.37,.23-9.54,.97-.69,1.81-1.04,3.12-.51,1.44,.58,3.12,.83,4.69,.82,1.84-.02,2.95,.83,4,2.26-.25,.65-.53,1.35-.79,2.05-.57,1.56-1.06,3.06-.06,4.71,.68,1.12,.45,2.48,.36,3.76-.05,.72,0,1.46,.08,2.18,.06,.62,.54,1.44,.29,1.82-1.57,2.43-.6,4.86,.2,7.07,.8,2.21,.53,3.95-.97,5.91,3.38,3.77,1.42,7.12-1.36,10.63,1.22,1.41,2.24,3.02,.77,4.98-.32,.43-.35,1.42-.07,1.89,1.31,2.22,.39,4.23-.51,6.18-.8,1.75-.1,2.97,1.11,4.25-1.06,1.2-1.97,1.68-3.86,1.45-2.32-.28-4.65-1.31-7.11-.65-.91,.25-1.92,.14-3.09,.2-.21-.25-.83-.65-.82-1.04,.06-3.5-2.31-5.82-3.96-8.53-.93-1.53-1.44-3.3-2.29-5.33-.56-2.82-1.19-6.07-1.9-9.3-.1-.46-.52-.9-.89-1.25-1.25-1.16-2.39-2.21-2.37-4.23,0-.89-1.35-1.8-2.17-2.79-.14-1.62,.33-3.55-1.86-4.99-.3,2.65-1.66,4.71-.66,7.67,.9,2.66,.75,5.89-.68,8.69l1.73,2.33c-.22,2.11,.15,4.22-.63,6.45-.65,1.86-.71,4.36,.02,6.16,.98,2.41,.16,4.19-.69,6.38-.57,0-1.22,.07-1.84-.01-1.68-.23-3.28-.52-5.05-.09-1.07,.26-2.64-.31-3.57-1.04-.76-.59-.9-1.96-1.28-2.9,1.03-.73,1.76-1.24,2.82-1.99-1.04-1.91-2.05-3.77-3.13-5.77,.51-.86-.14-2.27,.96-3.46,.62-.67,.58-2.31,.28-3.35-.71-2.45,.12-4.94-.41-7.33-.62-2.77,0-5.38,.42-8.07,.41-2.65-.35-5.42,.83-8.03,.18-.4,.08-1.12-.18-1.49-2.16-2.95-.53-5.97-.14-8.93,.12-.91,.15-1.61-.04-2.53-.53-2.57,.44-3.83,3.14-4.75,2.05-.69,5.11-.53,6.69,.24,.67,.33,1.44,.51,2.18,.61,.77,.1,1.56,.02,2.56,.02,.65,.94,1.26,1.92,1.97,2.82,.65,.82,1.4,1.54,2.24,2.45-.78,2.09-.41,3.87,1.07,5.82,1.87,2.49,2.55,5.59,1.96,8.87l4.43,4.08c-1.09,4.3,1.63,7.91,2.98,11.81,1.36,.2,2.11-.62,1.94-1.48-.41-2.17,.31-4.59-1.32-6.41Zm-4.26,21.88l-.28-.16-.03,.25,.31-.09Z" />
                <path class="d"
                    d="M223.26,42.7c.12,.22,.39,.49,.33,.66-1.05,3.11,.5,5.6,1.87,8.24l4.67-1.04c.3,.47,.6,1.23,1.16,1.69,.55,.45,1.37,.59,2.07,.87v8.56c-1.76,1.42-2.2-.55-3.47-1.15l-2.48,1.45c-2.44-.95-4.92-2.13-7.68-.61-.4,.22-1.07,.17-1.56,.03-2.78-.79-5.54,.36-8.32,.09-.68-.06-1.42,.51-2.32,.87-2.57-2.14-5.55-2.07-8.86-.85-.07-1.32-.36-2.27-.12-3.07,.49-1.68,.32-3.35,.4-5.03,.02-.45,.49-.89,.75-1.34,1.87,1.36,3.19-.22,4.82-.76,.69,.32,1.5,.68,2.54,1.16,1.19-.87,2.53-1.85,3.76-2.75-.14-1.63-.04-3.05-.97-4.28-.27-.36-.43-1.11-.24-1.47,1.22-2.26,.16-4.45,0-6.68-.21-2.84,.64-5.55,1.52-8.23,.99-3,1.42-5.97-.15-8.98-.38-.72-.38-1.84-.12-2.63,.72-2.18-.23-4.04-.66-5.97-2.68-.02-3.94,.26-4.69,.92-1.61-.57-3.38-.81-4.6-1.74-1.12-.86-1.66-2.47-2.37-3.62,.6-3.27,2.47-4.45,5.58-4.19,1.19,.1,2.48-.2,3.63-.57,2.57-.84,5.08-.73,7.65-.07,.83,.22,1.83,.3,2.63,.06,2.71-.83,5.28-.66,8.02,.08,1.31,.36,2.77,.75,4.42,.32,1.91-.49,3.77,.42,4.68,2.56,.65,1.52,1.54,2.95,2.27,4.32-.41,1.07-.78,1.26-1.99,1.25-3.61-.03-7.22,.49-11.19,.82-1.86,1.5-.64,4.09-1.25,6.25-.57,2.04,1.15,4.24-.18,5.91,.6,1.75,1.61,3.32,1.54,4.83-.12,2.48-.94,4.92-1.54,7.75,.8,1.37,2,3.14,.45,5.25-.12,.12-.24,.25-.36,.38l-.28,.04,.27,.29c.12,.13,.25,.25,.37,.38Z" />
                <path class="d"
                    d="M223.26,41.61c.7,.36,.71,.73,0,1.09-.13-.12-.25-.25-.37-.38v-.34c.13-.13,.25-.26,.37-.38Z" />
</svg>